<svg width="276" height="74" viewBox="0 0 276 74" fill="none" xmlns="http://www.w3.org/2000/svg">
<path d="M8.48438 73V32.2188H0.9375V22.2812H8.48438V19.9375C8.54688 13.5625 10.5 8.65625 14.3438 5.21875C18.2188 1.75 23.6719 0.015625 30.7031 0.015625C34.9219 0.015625 40.0469 0.9375 46.0781 2.78125L44.1094 13.9844C41.0469 13.0781 38.6719 12.5 36.9844 12.25C35.2969 11.9688 33.4844 11.8281 31.5469 11.8281C25.2344 11.8281 22.0781 14.625 22.0781 20.2188V22.2812H32.0625V32.2188H22.0781V73H8.48438ZM52.4062 73H38.8125V22.2812H52.4062V73ZM76.0781 22.2812L76.5 28.1406C80.125 23.6094 84.9844 21.3438 91.0781 21.3438C96.4531 21.3438 100.453 22.9219 103.078 26.0781C105.703 29.2344 107.047 33.9531 107.109 40.2344V73H93.5625V40.5625C93.5625 37.6875 92.9375 35.6094 91.6875 34.3281C90.4375 33.0156 88.3594 32.3594 85.4531 32.3594C81.6406 32.3594 78.7812 33.9844 76.875 37.2344V73H63.3281V22.2812H76.0781ZM148.312 59.5469C148.312 57.2031 147.422 55.3906 145.641 54.1094C143.891 52.7969 140.812 51.6719 136.406 50.7344C132.031 49.7969 128.547 48.6719 125.953 47.3594C123.391 46.0469 121.484 44.4844 120.234 42.6719C119.016 40.8594 118.406 38.7031 118.406 36.2031C118.406 32.0469 120.156 28.5312 123.656 25.6562C127.188 22.7812 131.688 21.3438 137.156 21.3438C142.906 21.3438 147.562 22.8281 151.125 25.7969C154.719 28.7656 156.516 32.5625 156.516 37.1875H147.797C147.797 34.8125 146.781 32.7656 144.75 31.0469C142.75 29.3281 140.219 28.4688 137.156 28.4688C134 28.4688 131.531 29.1562 129.75 30.5312C127.969 31.9062 127.078 33.7031 127.078 35.9219C127.078 38.0156 127.906 39.5938 129.562 40.6562C131.219 41.7188 134.203 42.7344 138.516 43.7031C142.859 44.6719 146.375 45.8281 149.062 47.1719C151.75 48.5156 153.734 50.1406 155.016 52.0469C156.328 53.9219 156.984 56.2188 156.984 58.9375C156.984 63.4688 155.172 67.1094 151.547 69.8594C147.922 72.5781 143.219 73.9375 137.438 73.9375C133.375 73.9375 129.781 73.2188 126.656 71.7812C123.531 70.3438 121.078 68.3438 119.297 65.7812C117.547 63.1875 116.672 60.3906 116.672 57.3906H125.344C125.5 60.2969 126.656 62.6094 128.812 64.3281C131 66.0156 133.875 66.8594 137.438 66.8594C140.719 66.8594 143.344 66.2031 145.312 64.8906C147.312 63.5469 148.312 61.7656 148.312 59.5469ZM180.047 10V22.2812H189.516V28.9844H180.047V60.4375C180.047 62.4688 180.469 64 181.312 65.0312C182.156 66.0312 183.594 66.5312 185.625 66.5312C186.625 66.5312 188 66.3438 189.75 65.9688V73C187.469 73.625 185.25 73.9375 183.094 73.9375C179.219 73.9375 176.297 72.7656 174.328 70.4219C172.359 68.0781 171.375 64.75 171.375 60.4375V28.9844H162.141V22.2812H171.375V10H180.047ZM220.734 73.9375C213.859 73.9375 208.266 71.6875 203.953 67.1875C199.641 62.6562 197.484 56.6094 197.484 49.0469V47.4531C197.484 42.4219 198.438 37.9375 200.344 34C202.281 30.0312 204.969 26.9375 208.406 24.7188C211.875 22.4688 215.625 21.3438 219.656 21.3438C226.25 21.3438 231.375 23.5156 235.031 27.8594C238.688 32.2031 240.516 38.4219 240.516 46.5156V50.125H206.156C206.281 55.125 207.734 59.1719 210.516 62.2656C213.328 65.3281 216.891 66.8594 221.203 66.8594C224.266 66.8594 226.859 66.2344 228.984 64.9844C231.109 63.7344 232.969 62.0781 234.562 60.0156L239.859 64.1406C235.609 70.6719 229.234 73.9375 220.734 73.9375ZM219.656 28.4688C216.156 28.4688 213.219 29.75 210.844 32.3125C208.469 34.8438 207 38.4062 206.438 43H231.844V42.3438C231.594 37.9375 230.406 34.5312 228.281 32.125C226.156 29.6875 223.281 28.4688 219.656 28.4688ZM275.109 30.0625C273.797 29.8438 272.375 29.7344 270.844 29.7344C265.156 29.7344 261.297 32.1562 259.266 37V73H250.594V22.2812H259.031L259.172 28.1406C262.016 23.6094 266.047 21.3438 271.266 21.3438C272.953 21.3438 274.234 21.5625 275.109 22V30.0625Z" fill="black" fill-opacity="0.74"/>
</svg>
