<svg width="2271" height="2304" viewBox="0 0 2271 2304" fill="none" xmlns="http://www.w3.org/2000/svg">
<path d="M1080.88 2272.15C1640.78 2254.95 2112.42 1773.37 2134.33 1196.51C2156.24 619.642 1720.11 165.937 1160.21 183.13C600.315 200.322 128.668 681.902 106.76 1258.77C84.8527 1835.63 520.981 2289.34 1080.88 2272.15Z" fill="#90C9FD" fill-opacity="0.52"/>
<path d="M1095.3 2198.01C1699.71 2178.03 2207.87 1678.02 2230.29 1081.22C2252.72 484.421 1780.93 16.8208 1176.51 36.8073C572.102 56.7937 63.9482 556.798 41.5213 1153.6C19.0943 1750.4 490.887 2218 1095.3 2198.01Z" fill="#ECECEC"/>
<path d="M1029.19 501.995H1011.6V680.657H1029.19V501.995Z" fill="#8DD070"/>
<path d="M1334.08 614.53L1318.64 603.467L1232.27 693.184L1247.71 704.248L1334.08 614.53Z" fill="#8DD070"/>
<path d="M733.833 614L721 628L799.723 724.498L812.557 710.498L733.833 614Z" fill="#8DD070"/>
<path d="M1049.29 1288.11H1031.7V1466.77H1049.29V1288.11Z" fill="#8DD070"/>
<path d="M1050 1275H1033V1456H1050V1275Z" fill="#8DD070"/>
<path opacity="0.5" d="M1529 461.676C1529 443.776 1524.39 426.181 1515.63 410.604C1506.87 395.026 1494.25 381.998 1479.01 372.785C1463.76 363.573 1446.41 358.491 1428.63 358.034C1410.85 357.577 1393.26 361.76 1377.57 370.176C1361.88 378.593 1348.62 390.956 1339.08 406.063C1329.54 421.169 1324.04 438.505 1323.13 456.381C1322.23 474.258 1325.93 492.068 1333.88 508.077C1341.84 524.086 1353.78 537.748 1368.53 547.735L1368.6 548.196C1371.97 551.444 1375.93 553.988 1380.28 555.682L1380.42 555.221C1385.28 559.386 1405.54 566.049 1428.88 566H1429.39C1444.16 566 1460.2 563.374 1474.32 555.692C1474.32 555.692 1474.44 555.417 1474.64 554.908C1478.22 553.22 1481.51 550.96 1484.37 548.216C1484.43 547.817 1484.49 547.425 1484.54 547.04C1498.27 537.505 1509.49 524.753 1517.23 509.882C1524.98 495.011 1529.02 478.467 1529 461.676V461.676Z" fill="url(#paint0_linear)"/>
<path d="M1426 563C1481.23 563 1526 517.781 1526 462C1526 406.219 1481.23 361 1426 361C1370.77 361 1326 406.219 1326 462C1326 517.781 1370.77 563 1426 563Z" fill="#F5F5F5"/>
<path d="M1387.74 503C1387.74 503 1363.73 504.964 1370.07 548.723C1373.36 551.881 1377.24 554.354 1381.49 556L1395 510.277L1387.74 503Z" fill="#FDA57D"/>
<path d="M1465.26 503C1465.26 503 1489.27 504.964 1482.93 548.723C1479.64 551.881 1475.76 554.354 1471.51 556L1458 510.277L1465.26 503Z" fill="#FDA57D"/>
<path d="M1388.63 431C1388.63 431 1377.23 464.732 1371 461.574C1371 461.574 1431.02 514.283 1484 461.574C1484 461.574 1474.67 444.708 1461.19 431H1388.63Z" fill="#333333"/>
<path d="M1425.67 494.804C1450.07 494.804 1469.84 475.027 1469.84 450.631C1469.84 426.235 1450.07 406.458 1425.67 406.458C1401.28 406.458 1381.5 426.235 1381.5 450.631C1381.5 475.027 1401.28 494.804 1425.67 494.804Z" fill="#333333"/>
<path opacity="0.1" d="M1463.12 524.599H1386.11L1378.88 555.453C1378.88 555.453 1374.65 569.724 1379.91 575.996C1385.16 582.267 1434.27 596.539 1470.31 577.025C1473.45 568.808 1473.82 559.788 1471.34 551.346C1467.23 536.968 1470.31 550.317 1470.31 550.317L1463.12 524.599Z" fill="black"/>
<path opacity="0.1" d="M1464.15 524.599H1387.08L1379.91 555.453C1379.91 555.453 1375.68 569.724 1380.94 575.996C1386.19 582.267 1435.3 596.539 1471.34 577.025C1474.48 568.808 1474.85 559.788 1472.37 551.346C1468.26 536.968 1471.34 550.317 1471.34 550.317L1464.15 524.599Z" fill="black"/>
<path d="M1463.57 524.599H1386.53L1379.31 555.453C1379.31 555.453 1375.09 569.724 1380.34 575.996C1385.6 582.267 1434.71 596.539 1470.75 577.025C1473.89 568.808 1474.25 559.788 1471.78 551.346C1467.67 536.968 1470.75 550.317 1470.75 550.317L1463.57 524.599Z" fill="#4E92DF"/>
<path opacity="0.1" d="M1410.15 499.037H1440.97V524.279C1440.97 526.23 1440.59 528.161 1439.84 529.963C1439.1 531.765 1438 533.403 1436.62 534.782C1435.24 536.161 1433.61 537.256 1431.8 538.002C1430 538.749 1428.07 539.133 1426.12 539.133H1425C1423.05 539.133 1421.12 538.749 1419.32 538.002C1417.52 537.256 1415.88 536.161 1414.5 534.782C1413.12 533.403 1412.03 531.765 1411.28 529.963C1410.53 528.161 1410.15 526.23 1410.15 524.279V499.037Z" fill="black"/>
<path d="M1410.15 497.892H1440.97V523.134C1440.97 525.084 1440.59 527.016 1439.84 528.818C1439.1 530.62 1438 532.258 1436.62 533.637C1435.24 535.016 1433.61 536.11 1431.8 536.857C1430 537.603 1428.07 537.988 1426.12 537.987H1425C1423.05 537.988 1421.12 537.603 1419.32 536.857C1417.52 536.11 1415.88 535.016 1414.5 533.637C1413.12 532.258 1412.03 530.62 1411.28 528.818C1410.53 527.016 1410.15 525.084 1410.15 523.134V497.892Z" fill="#FDA57D"/>
<path opacity="0.1" d="M1410.22 502.328C1420.15 506.041 1431.09 506.072 1441.04 502.416V498.629H1410.22V502.328Z" fill="black"/>
<path d="M1425.67 504.396C1450.07 504.396 1469.84 484.619 1469.84 460.223C1469.84 435.827 1450.07 416.05 1425.67 416.05C1401.28 416.05 1381.5 435.827 1381.5 460.223C1381.5 484.619 1401.28 504.396 1425.67 504.396Z" fill="#FDA57D"/>
<path d="M1383.44 443.438H1467.66C1467.66 443.438 1460.47 409.458 1428.62 411.594C1396.78 413.73 1383.44 443.438 1383.44 443.438Z" fill="#333333"/>
<path d="M1382.41 466.048C1384.68 466.048 1386.52 462.597 1386.52 458.34C1386.52 454.082 1384.68 450.631 1382.41 450.631C1380.14 450.631 1378.3 454.082 1378.3 458.34C1378.3 462.597 1380.14 466.048 1382.41 466.048Z" fill="#FDA57D"/>
<path d="M1468.71 466.048C1470.98 466.048 1472.82 462.597 1472.82 458.34C1472.82 454.082 1470.98 450.631 1468.71 450.631C1466.44 450.631 1464.6 454.082 1464.6 458.34C1464.6 462.597 1466.44 466.048 1468.71 466.048Z" fill="#FDA57D"/>
<path opacity="0.1" d="M1383.44 444.583H1467.66C1467.66 444.583 1460.47 410.604 1428.62 412.739C1396.78 414.875 1383.44 444.583 1383.44 444.583Z" fill="black"/>
<path d="M624.782 602.564C680.442 602.564 725.564 557.442 725.564 501.782C725.564 446.122 680.442 401 624.782 401C569.122 401 524 446.122 524 501.782C524 557.442 569.122 602.564 624.782 602.564Z" fill="#F5F5F5"/>
<path d="M581.145 541.185C581.145 541.185 557.128 543.149 563.471 586.902C566.762 590.059 570.647 592.532 574.9 594.178L588.411 548.461L581.145 541.185Z" fill="#1773D1"/>
<path d="M659.118 541.185C659.118 541.185 683.135 543.149 676.792 586.902C673.501 590.059 669.616 592.532 665.363 594.178L651.842 548.451L659.118 541.185Z" fill="#1773D1"/>
<path d="M620.788 511.051C645.462 511.051 665.464 491.049 665.464 466.375C665.464 441.701 645.462 421.698 620.788 421.698C596.114 421.698 576.111 441.701 576.111 466.375C576.111 491.049 596.114 511.051 620.788 511.051Z" fill="#333333"/>
<path d="M658.659 541.185H580.726L573.45 572.36C573.45 572.36 569.179 586.794 574.491 593.137C579.803 599.48 629.477 613.914 665.925 594.178C669.101 585.874 669.466 576.758 666.966 568.226C662.812 553.684 665.925 567.185 665.925 567.185L658.659 541.185Z" fill="#4D8AF0"/>
<path d="M659.698 541.185H581.765L574.489 572.36C574.489 572.36 570.218 586.794 575.53 593.137C580.842 599.48 630.516 613.914 666.964 594.178C670.14 585.874 670.505 576.758 668.005 568.226C663.851 553.684 666.964 567.185 666.964 567.185L659.698 541.185Z" fill="#4D8AF0"/>
<path d="M659.12 541.185H581.148L573.872 572.36C573.872 572.36 569.601 586.794 574.913 593.137C580.225 599.48 629.899 613.914 666.347 594.178C669.535 585.878 669.915 576.762 667.427 568.226C663.274 553.684 666.386 567.185 666.386 567.185L659.12 541.185Z" fill="#4E92DF"/>
<path opacity="0.1" d="M605.086 515.322H636.261V540.851C636.261 544.836 634.678 548.657 631.861 551.474C629.044 554.292 625.223 555.874 621.238 555.874H620.109C618.136 555.874 616.183 555.486 614.36 554.731C612.537 553.976 610.881 552.869 609.486 551.474C608.091 550.079 606.984 548.423 606.229 546.6C605.475 544.778 605.086 542.824 605.086 540.851V515.322Z" fill="black"/>
<path d="M605.086 514.173H636.261V539.702C636.261 543.687 634.678 547.508 631.861 550.325C629.044 553.143 625.223 554.725 621.238 554.725H620.109C618.136 554.725 616.183 554.337 614.36 553.582C612.537 552.827 610.881 551.72 609.486 550.325C608.091 548.93 606.984 547.274 606.229 545.451C605.475 543.629 605.086 541.675 605.086 539.702V514.173Z" fill="#FDB797"/>
<path opacity="0.1" d="M605.145 518.661C615.192 522.416 626.252 522.447 636.32 518.749V514.919H605.145V518.661Z" fill="black"/>
<path d="M620.788 520.752C645.462 520.752 665.464 500.75 665.464 476.076C665.464 451.402 645.462 431.399 620.788 431.399C596.114 431.399 576.111 451.402 576.111 476.076C576.111 500.75 596.114 520.752 620.788 520.752Z" fill="#FDB797"/>
<path opacity="0.1" d="M578.074 460.218H663.273C663.273 460.218 655.998 425.852 623.791 428.012C591.585 430.172 578.074 460.218 578.074 460.218Z" fill="black"/>
<path d="M578.074 459.099H663.273C663.273 459.099 655.998 424.732 623.791 426.892C591.585 429.053 578.074 459.099 578.074 459.099V459.099Z" fill="#333333"/>
<path d="M577.034 481.967C579.328 481.967 581.188 478.477 581.188 474.171C581.188 469.865 579.328 466.375 577.034 466.375C574.74 466.375 572.881 469.865 572.881 474.171C572.881 478.477 574.74 481.967 577.034 481.967Z" fill="#FDB797"/>
<path d="M664.302 481.967C666.596 481.967 668.455 478.477 668.455 474.171C668.455 469.865 666.596 466.375 664.302 466.375C662.008 466.375 660.148 469.865 660.148 474.171C660.148 478.477 662.008 481.967 664.302 481.967Z" fill="#FDB797"/>
<path d="M584.692 436.309C585.608 432.912 587.629 429.917 590.436 427.796C592.616 426.284 595.218 425.557 597.712 424.674C601.408 423.366 604.956 421.671 608.297 419.617C612.087 417.28 615.641 414.472 619.814 412.93C626.992 410.279 634.985 411.713 642.398 413.617C644.247 414.006 646.027 414.668 647.68 415.581C649.479 416.827 651.062 418.359 652.364 420.118L664.147 434.306C665.28 435.563 666.268 436.943 667.093 438.42C667.8 439.88 668.252 441.451 668.428 443.065C668.848 445.673 668.407 448.348 667.171 450.684C665.207 454.081 661.083 455.79 657.156 455.947C653.228 456.104 649.369 454.965 645.589 453.856C633.414 450.291 621.042 446.982 608.454 445.49C602.188 444.718 595.865 444.514 589.562 444.881C587.598 445.009 584.967 445.922 583.769 443.899C582.679 442.142 584.152 438.057 584.692 436.309V436.309Z" fill="#333333"/>
<path opacity="0.5" d="M917 299.9C917.001 281.961 921.646 264.328 930.483 248.718C939.32 233.107 952.048 220.05 967.429 210.817C982.809 201.585 1000.32 196.492 1018.25 196.034C1036.18 195.576 1053.93 199.768 1069.76 208.203C1085.59 216.638 1098.97 229.028 1108.59 244.168C1118.22 259.307 1123.76 276.68 1124.67 294.595C1125.59 312.51 1121.85 330.357 1113.83 346.4C1105.8 362.442 1093.75 376.133 1078.87 386.14L1078.8 386.601C1075.4 389.856 1071.4 392.406 1067.01 394.103L1066.88 393.642C1061.97 397.815 1041.53 404.492 1017.99 404.442H1017.48C1002.57 404.442 986.391 401.811 972.153 394.113C972.153 394.113 972.026 393.838 971.829 393.327C968.216 391.636 964.9 389.371 962.01 386.621C961.951 386.222 961.896 385.829 961.843 385.443C947.995 375.887 936.677 363.108 928.865 348.206C921.053 333.303 916.981 316.725 917 299.9V299.9Z" fill="url(#paint1_linear)"/>
<path d="M1020.9 400.692C1076.56 400.692 1121.68 355.57 1121.68 299.91C1121.68 244.25 1076.56 199.128 1020.9 199.128C965.235 199.128 920.113 244.25 920.113 299.91C920.113 355.57 965.235 400.692 1020.9 400.692Z" fill="#F5F5F5"/>
<path d="M981.383 338.292C981.383 338.292 957.366 340.256 963.709 384.009C967.001 387.166 970.885 389.639 975.139 391.285L988.649 345.568L981.383 338.292Z" fill="#BE7C5E"/>
<path d="M1059.31 338.292C1059.31 338.292 1083.32 340.256 1076.98 384.009C1073.68 387.169 1069.79 389.642 1065.53 391.285L1052.02 345.568L1059.31 338.292Z" fill="#BE7C5E"/>
<path d="M982.425 266.604C982.425 266.604 980.579 271.985 977.958 278.21C972.243 291.829 978.763 344.125 992.441 349.692C1007.79 355.947 1027.97 359.953 1048.93 352.304C1067.15 345.656 1072.77 286.134 1059.89 271.631C1058.37 269.932 1056.79 268.244 1055.14 266.594L982.425 266.604Z" fill="#333333"/>
<path d="M1020.97 308.168C1045.65 308.168 1065.65 288.166 1065.65 263.491C1065.65 238.817 1045.65 218.815 1020.97 218.815C996.3 218.815 976.298 238.817 976.298 263.491C976.298 288.166 996.3 308.168 1020.97 308.168Z" fill="#333333"/>
<path opacity="0.1" d="M1058.84 338.292H980.921L973.645 369.467C973.645 369.467 969.374 383.901 974.686 390.244C979.998 396.587 1029.67 411.021 1066.12 391.285C1069.3 382.975 1069.67 373.852 1067.16 365.314C1063.01 350.772 1066.12 364.273 1066.12 364.273L1058.84 338.292Z" fill="black"/>
<path opacity="0.1" d="M1059.89 338.292H981.962L974.686 369.467C974.686 369.467 970.415 383.901 975.727 390.244C981.039 396.587 1030.71 411.021 1067.16 391.285C1070.34 382.975 1070.71 373.852 1068.2 365.314C1064.05 350.772 1067.16 364.273 1067.16 364.273L1059.89 338.292Z" fill="black"/>
<path d="M1059.31 338.292H981.382L974.106 369.467C974.106 369.467 969.835 383.901 975.147 390.244C980.459 396.587 1030.13 411.021 1066.58 391.285C1069.76 382.975 1070.13 373.852 1067.62 365.314C1063.47 350.772 1066.58 364.273 1066.58 364.273L1059.31 338.292Z" fill="#4E92DF"/>
<path opacity="0.1" d="M1005.27 312.439H1036.45V337.968C1036.45 341.952 1034.86 345.774 1032.05 348.591C1029.23 351.408 1025.41 352.991 1021.42 352.991H1020.31C1018.33 352.991 1016.38 352.602 1014.56 351.847C1012.73 351.093 1011.08 349.986 1009.68 348.591C1008.29 347.196 1007.18 345.54 1006.43 343.717C1005.67 341.894 1005.28 339.941 1005.28 337.968V312.439H1005.27Z" fill="black"/>
<path d="M1005.27 311.28H1036.45V336.809C1036.45 340.794 1034.86 344.615 1032.05 347.432C1029.23 350.25 1025.41 351.832 1021.42 351.832H1020.31C1018.33 351.832 1016.38 351.444 1014.56 350.689C1012.73 349.934 1011.08 348.827 1009.68 347.432C1008.29 346.037 1007.18 344.381 1006.43 342.558C1005.67 340.736 1005.28 338.782 1005.28 336.809V311.28H1005.27Z" fill="#BE7C5E"/>
<path opacity="0.1" d="M1005.34 315.767C1015.39 319.522 1026.45 319.554 1036.52 315.856V312.026H1005.34V315.767Z" fill="black"/>
<path d="M1020.97 317.859C1045.65 317.859 1065.65 297.857 1065.65 273.183C1065.65 248.509 1045.65 228.506 1020.97 228.506C996.3 228.506 976.298 248.509 976.298 273.183C976.298 297.857 996.3 317.859 1020.97 317.859Z" fill="#BE7C5E"/>
<path d="M978.262 256.215H1063.46C1063.46 256.215 1056.19 221.849 1023.98 224.009C991.773 226.169 978.262 256.215 978.262 256.215Z" fill="#333333"/>
<path d="M977.22 279.074C979.514 279.074 981.373 275.583 981.373 271.278C981.373 266.972 979.514 263.481 977.22 263.481C974.926 263.481 973.066 266.972 973.066 271.278C973.066 275.583 974.926 279.074 977.22 279.074Z" fill="#BE7C5E"/>
<path d="M1064.5 279.074C1066.79 279.074 1068.65 275.583 1068.65 271.278C1068.65 266.972 1066.79 263.481 1064.5 263.481C1062.21 263.481 1060.35 266.972 1060.35 271.278C1060.35 275.583 1062.21 279.074 1064.5 279.074Z" fill="#BE7C5E"/>
<path opacity="0.1" d="M978.262 257.364H1063.46C1063.46 257.364 1056.19 222.998 1023.98 225.158C991.773 227.318 978.262 257.364 978.262 257.364Z" fill="black"/>
<path opacity="0.5" d="M619.715 661.87C639.52 661.87 655.574 645.815 655.574 626.011C655.574 606.207 639.52 590.152 619.715 590.152C599.911 590.152 583.856 606.207 583.856 626.011C583.856 645.815 599.911 661.87 619.715 661.87Z" fill="url(#paint2_linear)"/>
<path d="M619.716 659.758C638.354 659.758 653.463 644.649 653.463 626.011C653.463 607.372 638.354 592.263 619.716 592.263C601.077 592.263 585.968 607.372 585.968 626.011C585.968 644.649 601.077 659.758 619.716 659.758Z" fill="#8DD070"/>
<path d="M641.974 612.018L617.721 643.655L599.792 623.624L605.065 621.513L617.721 633.109L635.641 606.745L641.974 612.018Z" fill="white"/>
<path opacity="0.5" d="M1427.63 632.848C1447.21 632.848 1463.09 616.974 1463.09 597.393C1463.09 577.811 1447.21 561.938 1427.63 561.938C1408.05 561.938 1392.18 577.811 1392.18 597.393C1392.18 616.974 1408.05 632.848 1427.63 632.848Z" fill="url(#paint3_linear)"/>
<path d="M1427.63 630.76C1446.06 630.76 1461 615.821 1461 597.393C1461 578.964 1446.06 564.025 1427.63 564.025C1409.2 564.025 1394.26 578.964 1394.26 597.393C1394.26 615.821 1409.2 630.76 1427.63 630.76Z" fill="#8DD070"/>
<path d="M1407.93 595.024L1413.15 592.946L1425.66 604.412L1443.39 578.345L1449.64 583.558L1425.66 614.839L1407.93 595.024Z" fill="white"/>
<path opacity="0.5" d="M1023.98 459.998C1043.78 459.998 1059.84 443.944 1059.84 424.139C1059.84 404.335 1043.78 388.281 1023.98 388.281C1004.17 388.281 988.119 404.335 988.119 424.139C988.119 443.944 1004.17 459.998 1023.98 459.998Z" fill="url(#paint4_linear)"/>
<path d="M1023.98 457.887C1042.62 457.887 1057.73 442.778 1057.73 424.139C1057.73 405.501 1042.62 390.392 1023.98 390.392C1005.34 390.392 990.23 405.501 990.23 424.139C990.23 442.778 1005.34 457.887 1023.98 457.887Z" fill="#8DD070"/>
<path d="M1004.05 421.753L1009.33 419.642L1021.98 431.238L1039.91 404.875L1046.24 410.147L1021.98 441.784L1004.05 421.753Z" fill="white"/>
<path d="M926.87 1310.22C954.324 1310.22 976.579 1287.96 976.579 1260.51C976.579 1233.05 954.324 1210.8 926.87 1210.8C899.417 1210.8 877.161 1233.05 877.161 1260.51C877.161 1287.96 899.417 1310.22 926.87 1310.22Z" fill="#F2F2F2"/>
<path d="M934.952 1302.94C962.406 1302.94 984.661 1280.69 984.661 1253.23C984.661 1225.78 962.406 1203.53 934.952 1203.53C907.499 1203.53 885.243 1225.78 885.243 1253.23C885.243 1280.69 907.499 1302.94 934.952 1302.94Z" fill="#4E92DF"/>
<path d="M1590.02 1198.23H974.984V1199.91H1590.02V1198.23Z" fill="#3F3D56"/>
<path d="M1293.51 838.365H1075.21V833.865H976.228V838.365H757.029C755.09 838.365 753.17 838.747 751.378 839.489C749.587 840.231 747.959 841.318 746.588 842.69C745.216 844.061 744.129 845.689 743.387 847.48C742.645 849.272 742.263 851.192 742.263 853.131V1152.05C742.263 1155.97 743.818 1159.72 746.588 1162.49C749.357 1165.26 753.113 1166.82 757.029 1166.82H1293.51C1297.43 1166.82 1301.18 1165.26 1303.95 1162.49C1306.72 1159.72 1308.28 1155.97 1308.28 1152.05V853.131C1308.28 851.192 1307.9 849.272 1307.15 847.48C1306.41 845.689 1305.32 844.061 1303.95 842.69C1302.58 841.318 1300.95 840.231 1299.16 839.489C1297.37 838.747 1295.45 838.365 1293.51 838.365V838.365Z" fill="#3F3D56"/>
<path d="M1288.48 864.461H762.061V1161.42H1288.48V864.461Z" fill="#70B1F3"/>
<path d="M1024.82 856.362C1027.8 856.362 1030.22 853.945 1030.22 850.963C1030.22 847.981 1027.8 845.563 1024.82 845.563C1021.84 845.563 1019.42 847.981 1019.42 850.963C1019.42 853.945 1021.84 856.362 1024.82 856.362Z" fill="#1773D1"/>
<path opacity="0.1" d="M762.062 864.461L1137.94 1161.42H762.062V864.461Z" fill="black"/>
<path d="M844.428 1139.2C872.375 1139.2 895.03 1116.54 895.03 1088.59C895.03 1060.65 872.375 1037.99 844.428 1037.99C816.482 1037.99 793.827 1060.65 793.827 1088.59C793.827 1116.54 816.482 1139.2 844.428 1139.2Z" fill="#F2F2F2"/>
<path d="M1196.82 1024.61H1147.65V1034.89H1196.82V1024.61Z" fill="#3F3D56"/>
<path d="M1256.27 944.612H1088.2V949.016H1256.27V944.612Z" fill="#3F3D56"/>
<path d="M1256.27 958.557H1088.2V962.961H1256.27V958.557Z" fill="#3F3D56"/>
<path d="M1256.27 972.502H1088.2V976.906H1256.27V972.502Z" fill="#3F3D56"/>
<path d="M1256.27 986.447H1088.2V990.85H1256.27V986.447Z" fill="#3F3D56"/>
<path d="M1256.27 1000.39H1088.2V1004.79H1256.27V1000.39Z" fill="#3F3D56"/>
<path d="M1256.27 870.485H1235.72V891.035H1256.27V870.485Z" fill="#F2F2F2"/>
<path d="M1265.81 900.577H1240.86V875.623H1265.81V900.577ZM1241.94 899.492H1264.73V876.708H1241.94V899.492Z" fill="#3F3D56"/>
<path d="M1323.06 1156.02H1271.68V1152.32C1271.68 1152.22 1271.67 1152.12 1271.63 1152.03C1271.59 1151.95 1271.54 1151.86 1271.47 1151.8C1271.4 1151.73 1271.32 1151.67 1271.23 1151.64C1271.14 1151.6 1271.05 1151.58 1270.95 1151.58H1253.34C1253.24 1151.58 1253.14 1151.6 1253.06 1151.64C1252.97 1151.67 1252.89 1151.73 1252.82 1151.8C1252.75 1151.86 1252.7 1151.95 1252.66 1152.03C1252.62 1152.12 1252.6 1152.22 1252.6 1152.32V1156.02H1241.59V1152.32C1241.59 1152.22 1241.57 1152.12 1241.54 1152.03C1241.5 1151.95 1241.45 1151.86 1241.38 1151.8C1241.31 1151.73 1241.23 1151.67 1241.14 1151.64C1241.05 1151.6 1240.96 1151.58 1240.86 1151.58H1223.25C1223.15 1151.58 1223.05 1151.6 1222.96 1151.64C1222.88 1151.67 1222.79 1151.73 1222.73 1151.8C1222.66 1151.86 1222.6 1151.95 1222.57 1152.03C1222.53 1152.12 1222.51 1152.22 1222.51 1152.32V1156.02H1211.5V1152.32C1211.5 1152.22 1211.48 1152.12 1211.45 1152.03C1211.41 1151.95 1211.36 1151.86 1211.29 1151.8C1211.22 1151.73 1211.14 1151.67 1211.05 1151.64C1210.96 1151.6 1210.86 1151.58 1210.77 1151.58H1193.15C1193.06 1151.58 1192.96 1151.6 1192.87 1151.64C1192.78 1151.67 1192.7 1151.73 1192.63 1151.8C1192.57 1151.86 1192.51 1151.95 1192.48 1152.03C1192.44 1152.12 1192.42 1152.22 1192.42 1152.32V1156.02H1181.41V1152.32C1181.41 1152.22 1181.39 1152.12 1181.36 1152.03C1181.32 1151.95 1181.26 1151.86 1181.2 1151.8C1181.13 1151.73 1181.05 1151.67 1180.96 1151.64C1180.87 1151.6 1180.77 1151.58 1180.68 1151.58H1163.06C1162.97 1151.58 1162.87 1151.6 1162.78 1151.64C1162.69 1151.67 1162.61 1151.73 1162.54 1151.8C1162.48 1151.86 1162.42 1151.95 1162.38 1152.03C1162.35 1152.12 1162.33 1152.22 1162.33 1152.32V1156.02H1151.32V1152.32C1151.32 1152.22 1151.3 1152.12 1151.26 1152.03C1151.23 1151.95 1151.17 1151.86 1151.1 1151.8C1151.04 1151.73 1150.96 1151.67 1150.87 1151.64C1150.78 1151.6 1150.68 1151.58 1150.59 1151.58H1132.97C1132.87 1151.58 1132.78 1151.6 1132.69 1151.64C1132.6 1151.67 1132.52 1151.73 1132.45 1151.8C1132.38 1151.86 1132.33 1151.95 1132.29 1152.03C1132.26 1152.12 1132.24 1152.22 1132.24 1152.32V1156.02H1121.23V1152.32C1121.23 1152.22 1121.21 1152.12 1121.17 1152.03C1121.14 1151.95 1121.08 1151.86 1121.01 1151.8C1120.95 1151.73 1120.86 1151.67 1120.78 1151.64C1120.69 1151.6 1120.59 1151.58 1120.49 1151.58H1102.88C1102.78 1151.58 1102.69 1151.6 1102.6 1151.64C1102.51 1151.67 1102.43 1151.73 1102.36 1151.8C1102.29 1151.86 1102.24 1151.95 1102.2 1152.03C1102.17 1152.12 1102.15 1152.22 1102.15 1152.32V1156.02H1091.14V1152.32C1091.14 1152.22 1091.12 1152.12 1091.08 1152.03C1091.04 1151.95 1090.99 1151.86 1090.92 1151.8C1090.85 1151.73 1090.77 1151.67 1090.68 1151.64C1090.59 1151.6 1090.5 1151.58 1090.4 1151.58H952.424C952.327 1151.58 952.232 1151.6 952.143 1151.64C952.054 1151.67 951.973 1151.73 951.905 1151.8C951.836 1151.86 951.782 1151.95 951.746 1152.03C951.709 1152.12 951.69 1152.22 951.69 1152.32V1156.02H940.681V1152.32C940.681 1152.22 940.662 1152.12 940.625 1152.03C940.588 1151.95 940.534 1151.86 940.466 1151.8C940.398 1151.73 940.317 1151.67 940.228 1151.64C940.139 1151.6 940.043 1151.58 939.947 1151.58H922.332C922.236 1151.58 922.14 1151.6 922.051 1151.64C921.962 1151.67 921.881 1151.73 921.813 1151.8C921.745 1151.86 921.691 1151.95 921.654 1152.03C921.617 1152.12 921.598 1152.22 921.598 1152.32V1156.02H910.589V1152.32C910.589 1152.22 910.57 1152.12 910.533 1152.03C910.497 1151.95 910.443 1151.86 910.374 1151.8C910.306 1151.73 910.225 1151.67 910.136 1151.64C910.047 1151.6 909.952 1151.58 909.855 1151.58H892.241C892.145 1151.58 892.049 1151.6 891.96 1151.64C891.871 1151.67 891.79 1151.73 891.722 1151.8C891.654 1151.86 891.6 1151.95 891.563 1152.03C891.526 1152.12 891.507 1152.22 891.507 1152.32V1156.02H880.498V1152.32C880.498 1152.22 880.479 1152.12 880.442 1152.03C880.405 1151.95 880.351 1151.86 880.283 1151.8C880.215 1151.73 880.134 1151.67 880.045 1151.64C879.956 1151.6 879.861 1151.58 879.764 1151.58H862.15C862.053 1151.58 861.958 1151.6 861.869 1151.64C861.78 1151.67 861.699 1151.73 861.631 1151.8C861.563 1151.86 861.509 1151.95 861.472 1152.03C861.435 1152.12 861.416 1152.22 861.416 1152.32V1156.02H850.407V1152.32C850.407 1152.22 850.388 1152.12 850.351 1152.03C850.314 1151.95 850.26 1151.86 850.192 1151.8C850.124 1151.73 850.043 1151.67 849.954 1151.64C849.865 1151.6 849.769 1151.58 849.673 1151.58H832.058C831.962 1151.58 831.867 1151.6 831.778 1151.64C831.689 1151.67 831.608 1151.73 831.539 1151.8C831.471 1151.86 831.417 1151.95 831.38 1152.03C831.343 1152.12 831.325 1152.22 831.325 1152.32V1156.02H820.316V1152.32C820.316 1152.22 820.297 1152.12 820.26 1152.03C820.223 1151.95 820.169 1151.86 820.101 1151.8C820.032 1151.73 819.951 1151.67 819.862 1151.64C819.773 1151.6 819.678 1151.58 819.582 1151.58H801.967C801.871 1151.58 801.775 1151.6 801.686 1151.64C801.597 1151.67 801.516 1151.73 801.448 1151.8C801.38 1151.86 801.326 1151.95 801.289 1152.03C801.252 1152.12 801.233 1152.22 801.233 1152.32V1156.02H790.224V1152.32C790.224 1152.22 790.205 1152.12 790.168 1152.03C790.131 1151.95 790.077 1151.86 790.009 1151.8C789.941 1151.73 789.86 1151.67 789.771 1151.64C789.682 1151.6 789.587 1151.58 789.49 1151.58H771.876C771.78 1151.58 771.684 1151.6 771.595 1151.64C771.506 1151.67 771.425 1151.73 771.357 1151.8C771.289 1151.86 771.235 1151.95 771.198 1152.03C771.161 1152.12 771.142 1152.22 771.142 1152.32V1156.02H737.381C732.709 1156.02 728.229 1157.87 724.926 1161.18C721.622 1164.48 719.767 1168.96 719.767 1173.63V1181.6C719.767 1186.27 721.622 1190.75 724.926 1194.05C728.229 1197.35 732.709 1199.21 737.381 1199.21H1323.06C1327.73 1199.21 1332.21 1197.35 1335.52 1194.05C1338.82 1190.75 1340.67 1186.27 1340.67 1181.6V1173.63C1340.67 1168.96 1338.82 1164.48 1335.52 1161.18C1332.21 1157.87 1327.73 1156.02 1323.06 1156.02Z" fill="#3F3D56"/>
<path d="M856.678 1120.2C844.066 1120.2 831.737 1116.46 821.25 1109.45C810.763 1102.44 802.59 1092.49 797.763 1080.83C792.937 1069.18 791.674 1056.36 794.135 1043.99C796.595 1031.62 802.668 1020.26 811.587 1011.34C820.505 1002.42 831.867 996.347 844.237 993.886C856.607 991.426 869.429 992.689 881.081 997.515C892.734 1002.34 902.693 1010.52 909.7 1021C916.707 1031.49 920.447 1043.82 920.447 1056.43C920.428 1073.34 913.703 1089.55 901.748 1101.5C889.794 1113.46 873.585 1120.18 856.678 1120.2ZM856.678 994.339C844.398 994.339 832.393 997.981 822.182 1004.8C811.972 1011.63 804.013 1021.32 799.314 1032.67C794.614 1044.01 793.385 1056.5 795.78 1068.54C798.176 1080.59 804.09 1091.65 812.773 1100.33C821.457 1109.02 832.52 1114.93 844.565 1117.33C856.609 1119.72 869.094 1118.49 880.439 1113.79C891.785 1109.09 901.482 1101.14 908.305 1090.93C915.127 1080.72 918.769 1068.71 918.769 1056.43C918.75 1039.97 912.203 1024.19 900.562 1012.55C888.922 1000.91 873.14 994.358 856.678 994.339V994.339Z" fill="#3F3D56"/>
<path d="M1425.56 850.02H1211.6V851.698H1425.56V850.02Z" fill="#3F3D56"/>
<path d="M1675.6 1293.05H1060.57V1294.72H1675.6V1293.05Z" fill="#3F3D56"/>
<path d="M1095.39 1370.24H881.431V1371.92H1095.39V1370.24Z" fill="#3F3D56"/>
<path d="M1138.46 1284.2H1114.97V1307.69H1138.46V1284.2Z" fill="#4E92DF"/>
<path d="M1152.72 1294.27H1124.2V1265.74H1152.72V1294.27ZM1125.44 1293.03H1151.48V1266.98H1125.44V1293.03Z" fill="#3F3D56"/>
<path d="M1411.16 841.173H1387.66V864.667H1411.16V841.173Z" fill="#1773D1"/>
<path d="M1425.42 851.242H1396.89V822.714H1425.42V851.242ZM1398.13 850.002H1424.18V823.954H1398.13V850.002Z" fill="#3F3D56"/>
<path d="M1647.77 1284.2H1624.28V1307.69H1647.77V1284.2Z" fill="#4E92DF"/>
<path d="M1662.04 1294.27H1633.51V1265.74H1662.04V1294.27ZM1634.75 1293.03H1660.79V1266.98H1634.75V1293.03Z" fill="#3F3D56"/>
<path d="M1606.8 1017.34H1604.81V962.667C1604.81 958.512 1603.99 954.397 1602.4 950.558C1600.81 946.718 1598.48 943.23 1595.54 940.292C1592.6 937.353 1589.11 935.022 1585.27 933.432C1581.43 931.842 1577.32 931.023 1573.16 931.023H1457.33C1453.17 931.023 1449.06 931.842 1445.22 933.432C1441.38 935.022 1437.89 937.353 1434.95 940.292C1432.01 943.23 1429.68 946.718 1428.09 950.558C1426.5 954.397 1425.68 958.512 1425.68 962.667V1262.62C1425.68 1266.77 1426.5 1270.89 1428.09 1274.73C1429.68 1278.57 1432.01 1282.05 1434.95 1284.99C1437.89 1287.93 1441.38 1290.26 1445.22 1291.85C1449.06 1293.44 1453.17 1294.26 1457.33 1294.26H1573.16C1577.32 1294.26 1581.43 1293.44 1585.27 1291.85C1589.11 1290.26 1592.6 1287.93 1595.54 1284.99C1598.48 1282.05 1600.81 1278.57 1602.4 1274.73C1603.99 1270.89 1604.81 1266.77 1604.81 1262.62V1056.26H1606.8L1606.8 1017.34Z" fill="#3F3D56"/>
<path d="M1598.07 964.527V1264.04C1598.07 1270.31 1595.58 1276.32 1591.15 1280.75C1586.72 1285.18 1580.7 1287.67 1574.44 1287.68H1458.04C1451.77 1287.67 1445.76 1285.18 1441.33 1280.75C1436.9 1276.32 1434.41 1270.31 1434.41 1264.04V964.527C1434.41 958.261 1436.9 952.251 1441.34 947.82C1445.77 943.389 1451.78 940.9 1458.04 940.899H1472.16C1471.47 942.604 1471.2 944.453 1471.39 946.284C1471.58 948.115 1472.22 949.872 1473.24 951.4C1474.27 952.928 1475.66 954.18 1477.28 955.045C1478.91 955.91 1480.72 956.363 1482.56 956.363H1548.92C1550.76 956.363 1552.57 955.91 1554.2 955.045C1555.82 954.18 1557.21 952.928 1558.24 951.4C1559.27 949.872 1559.9 948.115 1560.09 946.284C1560.28 944.453 1560.01 942.604 1559.32 940.899H1574.44C1580.7 940.9 1586.71 943.389 1591.14 947.82C1595.57 952.251 1598.06 958.261 1598.07 964.527Z" fill="#70B1F3"/>
<path d="M1533.58 1138.39H1498.9V1148.66H1533.58V1138.39Z" fill="#3F3D56"/>
<path d="M1575.5 1058.39H1456.99V1062.79H1575.5V1058.39Z" fill="#3F3D56"/>
<path d="M1575.5 1072.33H1456.99V1076.73H1575.5V1072.33Z" fill="#3F3D56"/>
<path d="M1575.5 1086.28H1456.99V1090.68H1575.5V1086.28Z" fill="#3F3D56"/>
<path d="M1575.5 1100.22H1456.99V1104.62H1575.5V1100.22Z" fill="#3F3D56"/>
<path d="M1575.5 1114.17H1456.99V1118.57H1575.5V1114.17Z" fill="#3F3D56"/>
<path d="M1520.38 999.907H1499.83V1020.46H1520.38V999.907Z" fill="#F2F2F2"/>
<path d="M1507.7 1005.05V1030H1532.65V1005.05H1507.7ZM1531.57 1028.92H1508.78V1006.13H1531.57V1028.92Z" fill="#3F3D56"/>
<path opacity="0.1" d="M1598.07 1232.05V1264.04C1598.07 1270.31 1595.58 1276.32 1591.15 1280.75C1586.72 1285.18 1580.7 1287.68 1574.44 1287.68H1458.04C1451.77 1287.68 1445.76 1285.18 1441.33 1280.75C1436.9 1276.32 1434.41 1270.31 1434.41 1264.04V1102.76L1532.48 1180.23L1534.15 1181.56L1552.39 1195.97L1554.1 1197.32L1598.07 1232.05Z" fill="black"/>
<path d="M1506.17 1277.97C1526.5 1277.97 1542.98 1261.49 1542.98 1241.16C1542.98 1220.83 1526.5 1204.35 1506.17 1204.35C1485.85 1204.35 1469.37 1220.83 1469.37 1241.16C1469.37 1261.49 1485.85 1277.97 1506.17 1277.97Z" fill="#F2F2F2"/>
<path d="M988.413 1371.92C973.975 1371.92 959.861 1367.64 947.857 1359.62C935.852 1351.59 926.496 1340.19 920.971 1326.86C915.446 1313.52 914 1298.84 916.817 1284.68C919.633 1270.52 926.586 1257.51 936.795 1247.3C947.004 1237.09 960.011 1230.14 974.171 1227.32C988.332 1224.51 1003.01 1225.95 1016.35 1231.48C1029.69 1237 1041.09 1246.36 1049.11 1258.36C1057.13 1270.37 1061.41 1284.48 1061.41 1298.92C1061.39 1318.27 1053.69 1336.83 1040.01 1350.51C1026.32 1364.2 1007.77 1371.9 988.413 1371.92ZM988.413 1227.6C974.307 1227.6 960.518 1231.78 948.789 1239.62C937.061 1247.46 927.919 1258.59 922.521 1271.63C917.123 1284.66 915.711 1299 918.463 1312.83C921.215 1326.67 928.007 1339.38 937.982 1349.35C947.956 1359.33 960.664 1366.12 974.499 1368.87C988.334 1371.62 1002.67 1370.21 1015.71 1364.81C1028.74 1359.41 1039.88 1350.27 1047.71 1338.54C1055.55 1326.81 1059.73 1313.03 1059.73 1298.92C1059.71 1280.01 1052.19 1261.88 1038.82 1248.51C1025.45 1235.14 1007.32 1227.62 988.413 1227.6V1227.6Z" fill="#3F3D56"/>
<path d="M1517.02 1269.55C1507.89 1269.55 1498.97 1266.85 1491.38 1261.77C1483.79 1256.7 1477.88 1249.5 1474.38 1241.06C1470.89 1232.63 1469.98 1223.35 1471.76 1214.4C1473.54 1205.45 1477.93 1197.23 1484.39 1190.77C1490.84 1184.32 1499.06 1179.92 1508.02 1178.14C1516.97 1176.36 1526.25 1177.28 1534.68 1180.77C1543.11 1184.26 1550.32 1190.18 1555.39 1197.76C1560.46 1205.35 1563.17 1214.28 1563.17 1223.4C1563.15 1235.64 1558.29 1247.37 1549.64 1256.02C1540.98 1264.67 1529.25 1269.54 1517.02 1269.55V1269.55ZM1517.02 1178.93C1508.22 1178.93 1499.63 1181.54 1492.31 1186.43C1485 1191.31 1479.3 1198.26 1475.93 1206.39C1472.57 1214.51 1471.69 1223.45 1473.4 1232.08C1475.12 1240.71 1479.36 1248.63 1485.57 1254.85C1491.79 1261.07 1499.72 1265.3 1508.34 1267.02C1516.97 1268.74 1525.91 1267.85 1534.04 1264.49C1542.16 1261.12 1549.11 1255.42 1554 1248.11C1558.88 1240.8 1561.49 1232.2 1561.49 1223.4C1561.48 1211.61 1556.79 1200.31 1548.45 1191.97C1540.11 1183.64 1528.81 1178.95 1517.02 1178.93V1178.93Z" fill="#3F3D56"/>
<path d="M1266.06 1583.06C1180.13 1516.82 1060.58 1514.11 973.357 1578.65C927.251 1612.77 891.507 1664.96 898.01 1744.44C900.309 1772.55 906.706 1795.61 916.039 1814.49C953.841 1891.02 1109.1 1888.07 1117.73 1888.06C1123.31 1888.06 1128.9 1888.18 1134.49 1888.44C1154.05 1889.34 1173.52 1891.8 1192.69 1895.8C1220.03 1901.5 1254.84 1904.36 1285.94 1893.57C1291.22 1891.74 1296.35 1889.51 1301.29 1886.89C1318.38 1877.81 1337.51 1869.13 1348.7 1847.59C1357.1 1831.42 1363.22 1811.15 1366.17 1785.9C1376.9 1693.95 1323.3 1627.18 1266.06 1583.06V1583.06Z" fill="#F2F2F2"/>
<path d="M1134.86 1912.6C1270.57 1912.6 1380.59 1902.28 1380.59 1889.54C1380.59 1876.8 1270.57 1866.47 1134.86 1866.47C999.15 1866.47 889.135 1876.8 889.135 1889.54C889.135 1902.28 999.15 1912.6 1134.86 1912.6Z" fill="#3F3D56"/>
<path opacity="0.1" d="M1122.86 1900.37C1249.08 1900.37 1351.4 1895.52 1351.4 1889.54C1351.4 1883.56 1249.08 1878.71 1122.86 1878.71C996.637 1878.71 894.314 1883.56 894.314 1889.54C894.314 1895.52 996.637 1900.37 1122.86 1900.37Z" fill="black"/>
<path d="M1215.6 1606.5V1888.71H1285.91V1617.24V1606.5V1580.62H1249.29V1606.5H1215.6Z" fill="#575A89"/>
<path d="M1020.78 1710.01V1754.44H1004.67V1889.2H1079.38V1754.44H1063.75V1710.01H1020.78Z" fill="#575A89"/>
<path d="M1071.07 1826.7H1012.97V1889.69H1071.07V1826.7Z" fill="#3F3D56"/>
<path opacity="0.1" d="M1022.25 1826.7H1012.97V1889.69H1022.25V1826.7Z" fill="black"/>
<path d="M1104.77 1581.59V1566.46H1079.38V1889.69H1215.6V1566.46H1190.7V1581.59H1104.77Z" fill="#3F3D56"/>
<path opacity="0.1" d="M1209.74 1566.46H1190.7V1581.59H1209.74V1566.46Z" fill="black"/>
<path opacity="0.1" d="M1098.42 1566.46H1079.38V1889.69H1098.42V1566.46Z" fill="black"/>
<path d="M969.516 1646.53V1658.74H946.566V1889.69H1004.67V1658.74H982.21V1646.53H969.516Z" fill="#3F3D56"/>
<path opacity="0.1" d="M976.351 1646.53H969.516V1658.74H976.351V1646.53Z" fill="black"/>
<path opacity="0.1" d="M953.402 1658.74H946.566V1889.69H953.402V1658.74Z" fill="black"/>
<path opacity="0.1" d="M1209.74 1690.97H1190.7V1889.69H1209.74V1690.97Z" fill="black"/>
<path opacity="0.1" d="M1004.67 1658.74H987.092V1701.22H1004.67V1658.74Z" fill="black"/>
<path d="M1127.71 1607.47H1100.37V1619.19H1127.71V1607.47Z" fill="#FF6584"/>
<path d="M1185.82 1728.07H1158.47V1739.79H1185.82V1728.07Z" fill="#FF6584"/>
<path d="M1127.71 1812.54H1100.37V1824.26H1127.71V1812.54Z" fill="#FF6584"/>
<path d="M989.534 1711.47H962.191V1723.19H989.534V1711.47Z" fill="#FF6584"/>
<path d="M1055.94 1833.54H1028.59V1845.26H1055.94V1833.54Z" fill="#FF6584"/>
<path opacity="0.1" d="M1065.7 1764.69H1018.83V1784.23H1065.7V1764.69Z" fill="black"/>
<path opacity="0.1" d="M1270.77 1628.96H1223.9V1648.49H1270.77V1628.96Z" fill="black"/>
<path opacity="0.1" d="M1270.77 1670.46H1223.9V1689.99H1270.77V1670.46Z" fill="black"/>
<path opacity="0.1" d="M1270.77 1711.96H1223.9V1731.49H1270.77V1711.96Z" fill="black"/>
<path opacity="0.1" d="M1270.77 1753.46H1223.9V1773H1270.77V1753.46Z" fill="black"/>
<path opacity="0.1" d="M1270.77 1794.97H1223.9V1814.5H1270.77V1794.97Z" fill="black"/>
<path opacity="0.1" d="M1270.77 1836.47H1223.9V1856H1270.77V1836.47Z" fill="black"/>
<path d="M1267.85 1664.11V1717.33H1255.64V1889.69H1313.74V1717.33H1302.03V1664.11H1267.85Z" fill="#3F3D56"/>
<path opacity="0.1" d="M1278.59 1664.11H1267.85V1717.33H1278.59V1664.11Z" fill="black"/>
<path opacity="0.1" d="M1266.38 1717.33H1255.64V1889.69H1266.38V1717.33Z" fill="black"/>
<path opacity="0.1" d="M1313.75 1803.76H1284.94V1820.85H1313.75V1803.76Z" fill="black"/>
<path d="M1313.26 1778.37H1285.91V1790.08H1313.26V1778.37Z" fill="#FF6584"/>
<path d="M1398.84 1790.2C1398.84 1833.7 1372.98 1848.89 1341.08 1848.89C1309.18 1848.89 1283.32 1833.7 1283.32 1790.2C1283.32 1746.7 1341.08 1691.36 1341.08 1691.36C1341.08 1691.36 1398.84 1746.7 1398.84 1790.2V1790.2Z" fill="#4E92DF"/>
<path d="M1315.76 1767.79L1336.99 1800.63L1336.77 1804.74L1336.73 1804.8L1336.75 1805.14L1332.39 1888.56H1338.22L1338.92 1845.47L1360.1 1812.71L1338.97 1842.23L1339.56 1805.83L1364.18 1760.79L1339.66 1800.11L1339.92 1783.74L1356.89 1751.16L1339.99 1779.41L1340.47 1749.97L1358.64 1724.03L1340.55 1745.34L1340.85 1691.36L1338.97 1762.82L1339.12 1759.87L1320.65 1731.6L1338.83 1765.53L1337.1 1798.42L1337.05 1797.54L1315.76 1767.79Z" fill="#3F3D56"/>
<path d="M975.514 1790.67C975.514 1834.17 949.654 1849.36 917.754 1849.36C885.853 1849.36 859.993 1834.17 859.993 1790.67C859.993 1747.17 917.754 1691.83 917.754 1691.83C917.754 1691.83 975.514 1747.17 975.514 1790.67Z" fill="#4E92DF"/>
<path d="M892.436 1768.26L913.667 1801.1L913.451 1805.21L913.413 1805.27L913.43 1805.61L909.064 1889.03H914.898L915.598 1845.94L936.777 1813.18L915.65 1842.7L916.242 1806.3L940.861 1761.26L916.335 1800.59L916.601 1784.22L933.568 1751.63L916.671 1779.88V1779.88L917.149 1750.44L935.318 1724.5L917.225 1745.81L917.524 1691.83L915.645 1763.29L915.8 1760.35L897.327 1732.07L915.503 1766.01L913.782 1798.89L913.731 1798.01L892.436 1768.26Z" fill="#3F3D56"/>
<path d="M1152.83 1615.38C1147.47 1613.16 1145.9 1611.56 1145.9 1608.35C1145.9 1605.89 1146.98 1603.06 1151.72 1603.06C1154.34 1603.02 1156.92 1603.75 1159.13 1605.16L1160.67 1601.09C1158.88 1600.03 1156.36 1599.05 1152.66 1598.93V1592.96H1149.55V1599.17C1143.88 1600.1 1140.6 1603.98 1140.6 1609.09C1140.6 1614.44 1143.76 1617.28 1150.06 1619.74C1154.62 1621.6 1157 1623.69 1157 1627.08C1157 1630.59 1154.05 1633.11 1149.67 1633.11C1146.23 1633.11 1142.32 1631.94 1140.11 1630.46L1138.63 1634.58C1140.79 1636.13 1144.48 1637.23 1148.05 1637.3V1643.51H1153.35V1637.11C1159.67 1636.06 1163.07 1631.49 1163.07 1626.64C1163.07 1621.16 1159.17 1617.96 1152.83 1615.38V1615.38Z" fill="url(#paint5_linear)"/>
<path d="M1148.06 1648.13V1641.91C1144.5 1641.85 1140.8 1640.74 1138.64 1639.2L1140.12 1635.08C1142.34 1636.56 1146.24 1637.73 1149.69 1637.73C1154.06 1637.73 1157 1635.2 1157 1631.69C1157 1628.31 1154.6 1626.21 1150.04 1624.37C1143.76 1621.91 1140.59 1619.07 1140.59 1613.71C1140.59 1608.6 1143.87 1604.73 1149.54 1603.8V1597.59H1152.65V1603.56C1156.35 1603.68 1158.87 1604.66 1160.65 1605.71L1159.11 1609.77C1156.9 1608.36 1154.33 1607.63 1151.71 1607.67C1146.97 1607.67 1145.89 1610.5 1145.89 1612.96C1145.89 1616.16 1147.46 1617.76 1152.82 1619.99C1159.16 1622.57 1163.06 1625.77 1163.06 1631.25C1163.06 1636.12 1159.67 1640.67 1153.34 1641.72V1648.13H1148.06Z" fill="#8DD070"/>
<path d="M1045.45 1728.06C1042.43 1726.81 1041.54 1725.9 1041.54 1724.09C1041.54 1722.7 1042.15 1721.1 1044.83 1721.1C1046.31 1721.08 1047.76 1721.49 1049.01 1722.29L1049.88 1719.99C1048.87 1719.4 1047.45 1718.84 1045.36 1718.77V1715.4H1043.6V1718.91C1040.4 1719.43 1038.55 1721.62 1038.55 1724.51C1038.55 1727.53 1040.34 1729.13 1043.89 1730.52C1046.46 1731.57 1047.81 1732.75 1047.81 1734.66C1047.81 1736.65 1046.14 1738.07 1043.67 1738.07C1041.73 1738.07 1039.52 1737.41 1038.27 1736.58L1037.44 1738.9C1038.66 1739.77 1040.74 1740.4 1042.76 1740.43V1743.94H1045.75V1740.33C1049.32 1739.73 1051.24 1737.16 1051.24 1734.42C1051.24 1731.33 1049.04 1729.52 1045.45 1728.06Z" fill="url(#paint6_linear)"/>
<path d="M1042.76 1746.55V1743.04C1040.75 1743 1038.66 1742.38 1037.45 1741.51L1038.28 1739.18C1039.53 1740.02 1041.74 1740.68 1043.68 1740.68C1046.15 1740.68 1047.81 1739.25 1047.81 1737.27C1047.81 1735.36 1046.46 1734.18 1043.88 1733.13C1040.34 1731.75 1038.54 1730.14 1038.54 1727.12C1038.54 1724.23 1040.4 1722.04 1043.6 1721.52V1718.01H1045.35V1721.38C1047.44 1721.45 1048.86 1722.01 1049.87 1722.6L1049 1724.89C1047.76 1724.1 1046.3 1723.68 1044.82 1723.7C1042.15 1723.7 1041.54 1725.3 1041.54 1726.69C1041.54 1728.5 1042.42 1729.41 1045.45 1730.66C1049.03 1732.12 1051.23 1733.93 1051.23 1737.02C1051.23 1739.77 1049.32 1742.34 1045.74 1742.93V1746.55H1042.76Z" fill="#8DD070"/>
<path d="M977.817 1675.22C974.449 1673.82 973.459 1672.82 973.459 1670.8C973.459 1669.25 974.139 1667.47 977.121 1667.47C978.77 1667.44 980.389 1667.91 981.778 1668.79L982.747 1666.23C981.623 1665.57 980.037 1664.95 977.713 1664.87V1661.12H975.754V1665.03C972.191 1665.61 970.128 1668.05 970.128 1671.26C970.128 1674.63 972.116 1676.41 976.074 1677.96C978.941 1679.13 980.441 1680.45 980.441 1682.58C980.441 1684.78 978.583 1686.37 975.833 1686.37C973.667 1686.37 971.21 1685.63 969.817 1684.7L968.887 1687.3C970.243 1688.27 972.567 1688.96 974.811 1689V1692.91H978.144V1688.89C982.12 1688.22 984.26 1685.35 984.26 1682.3C984.26 1678.86 981.806 1676.84 977.817 1675.22V1675.22Z" fill="url(#paint7_linear)"/>
<path d="M974.819 1695.82V1691.91C972.575 1691.87 970.252 1691.17 968.896 1690.2L969.825 1687.61C971.219 1688.54 973.675 1689.27 975.842 1689.27C978.592 1689.27 980.441 1687.69 980.441 1685.48C980.441 1683.35 978.932 1682.03 976.065 1680.87C972.116 1679.32 970.119 1677.54 970.119 1674.17C970.119 1670.96 972.182 1668.52 975.745 1667.94V1664.03H977.704V1667.78C980.028 1667.86 981.614 1668.48 982.738 1669.14L981.768 1671.69C980.38 1670.8 978.761 1670.34 977.112 1670.37C974.13 1670.37 973.45 1672.15 973.45 1673.7C973.45 1675.71 974.44 1676.72 977.808 1678.12C981.797 1679.74 984.251 1681.76 984.251 1685.2C984.251 1688.26 982.122 1691.13 978.135 1691.78V1695.82H974.819Z" fill="#8DD070"/>
<path d="M1265.63 1629.06V1624.11C1262.79 1624.06 1259.85 1623.18 1258.13 1621.95L1259.31 1618.66C1261.07 1619.84 1264.19 1620.77 1266.93 1620.77C1270.41 1620.77 1272.75 1618.76 1272.75 1615.97C1272.75 1613.27 1270.84 1611.6 1267.21 1610.13C1262.21 1608.17 1259.68 1605.91 1259.68 1601.64C1259.68 1597.57 1262.29 1594.49 1266.81 1593.75V1588.8H1269.29V1593.55C1272.23 1593.65 1274.24 1594.43 1275.66 1595.27L1274.44 1598.51C1272.68 1597.38 1270.63 1596.8 1268.54 1596.83C1264.76 1596.83 1263.9 1599.08 1263.9 1601.05C1263.9 1603.59 1265.15 1604.87 1269.42 1606.64C1274.47 1608.7 1277.58 1611.25 1277.58 1615.62C1277.58 1619.49 1274.88 1623.12 1269.83 1623.95V1629.06H1265.63Z" fill="#8DD070"/>
<path d="M1284.18 1705.59V1701.66C1281.93 1701.62 1279.59 1700.92 1278.23 1699.94L1279.16 1697.34C1280.56 1698.27 1283.03 1699.01 1285.21 1699.01C1287.98 1699.01 1289.83 1697.42 1289.83 1695.2C1289.83 1693.06 1288.32 1691.73 1285.43 1690.57C1281.46 1689.01 1279.46 1687.22 1279.46 1683.83C1279.46 1680.6 1281.53 1678.15 1285.11 1677.57V1673.64H1287.08V1677.41C1289.42 1677.49 1291.01 1678.11 1292.14 1678.77L1291.17 1681.34C1289.77 1680.45 1288.14 1679.98 1286.49 1680.01C1283.49 1680.01 1282.81 1681.8 1282.81 1683.36C1282.81 1685.38 1283.8 1686.39 1287.19 1687.8C1291.2 1689.43 1293.66 1691.46 1293.66 1694.92C1293.66 1698 1291.52 1700.88 1287.52 1701.54V1705.59H1284.18Z" fill="#8DD070"/>
<path fill-rule="evenodd" clip-rule="evenodd" d="M1562.45 1791.15C1562.45 1791.15 1562.45 1791.15 1562.09 1790.51C1561.74 1789.87 1561.74 1789.87 1561.74 1789.87L1561.75 1789.86L1561.79 1789.84C1561.82 1789.82 1561.88 1789.79 1561.95 1789.75C1562.09 1789.67 1562.31 1789.55 1562.6 1789.38C1563.17 1789.05 1564.02 1788.55 1565.13 1787.88C1567.35 1786.54 1570.61 1784.51 1574.78 1781.76C1583.12 1776.26 1595.07 1767.88 1609.51 1756.37C1638.4 1733.34 1677.23 1697.77 1717.01 1647.64C1796.57 1547.37 1879.93 1388.83 1895.08 1155.75L1896.55 1155.84C1881.38 1389.26 1797.88 1548.08 1718.16 1648.55C1678.3 1698.78 1639.38 1734.42 1610.43 1757.51C1595.95 1769.06 1583.96 1777.46 1575.59 1782.99C1571.41 1785.75 1568.12 1787.79 1565.89 1789.14C1564.77 1789.81 1563.91 1790.32 1563.33 1790.65C1563.04 1790.82 1562.82 1790.94 1562.67 1791.03C1562.6 1791.07 1562.54 1791.1 1562.51 1791.12L1562.45 1791.15Z" fill="#3F3D56" stroke="black" stroke-width="5.54535" stroke-miterlimit="10"/>
<path d="M1904.7 1166.69L1896.06 1157.22L1886.08 1164.19L1884.18 1162.36L1896.33 1153.88L1906.86 1165.41L1904.7 1166.69Z" fill="#3F3D56"/>
<path d="M1949.54 982.264C1946.49 983.222 1942.59 982.077 1938.73 979.396C1934.87 976.719 1931.08 972.527 1928.29 967.454C1925.49 962.38 1924.23 957.397 1924.43 953.445C1924.64 949.488 1926.31 946.592 1929.37 945.634C1932.42 944.676 1936.32 945.821 1940.18 948.502C1944.04 951.179 1947.83 955.371 1950.62 960.444C1953.42 965.518 1954.68 970.501 1954.48 974.453C1954.27 978.41 1952.6 981.306 1949.54 982.264Z" fill="#8DD070" stroke="black"/>
<path fill-rule="evenodd" clip-rule="evenodd" d="M1931.06 902.498L1931.27 902.703C1967.93 938.962 1991.87 982.419 2000.09 1027.64L2000.17 1028.06L1940.21 1046.87L1940.15 1046.28C1935.44 999.162 1912.61 957.71 1871.63 921.92L1870.98 921.352L1931.06 902.498ZM1872.91 921.759C1913.48 957.406 1936.21 998.687 1941.05 1045.59L1999.06 1027.39C1990.83 982.626 1967.1 939.579 1930.79 903.595L1872.91 921.759Z" fill="#3F3D56" stroke="black" stroke-width="3.65578" stroke-miterlimit="10"/>
<path fill-rule="evenodd" clip-rule="evenodd" d="M1936.4 921.167L1936.61 921.372C1963.08 947.558 1980.38 978.947 1986.32 1011.61L1986.39 1012.03L1942.85 1025.7L1942.79 1025.11C1939.39 991.138 1922.94 961.251 1893.38 935.438L1892.73 934.871L1936.4 921.167ZM1894.66 935.278C1923.8 960.947 1940.16 990.664 1943.69 1024.42L1985.29 1011.37C1979.34 979.155 1962.26 948.175 1936.14 922.264L1894.66 935.278Z" fill="#3F3D56" stroke="black" stroke-width="3.65578" stroke-miterlimit="10"/>
<path fill-rule="evenodd" clip-rule="evenodd" d="M1948.58 953.677C1944.77 951.033 1941.02 949.973 1938.14 950.876C1935.27 951.778 1933.62 954.532 1933.42 958.435C1933.21 962.322 1934.46 967.247 1937.23 972.277C1940 977.307 1943.75 981.447 1947.54 984.08C1951.35 986.724 1955.1 987.784 1957.98 986.882C1960.85 985.979 1962.5 983.226 1962.7 979.323C1962.91 975.436 1961.66 970.511 1958.89 965.481C1956.12 960.451 1952.37 956.31 1948.58 953.677ZM1949.16 953.003C1953.13 955.757 1956.98 960.039 1959.82 965.188C1962.66 970.337 1963.96 975.421 1963.75 979.487C1963.54 983.538 1961.81 986.682 1958.45 987.737C1955.09 988.792 1950.92 987.498 1946.96 984.755C1942.99 982 1939.14 977.718 1936.3 972.569C1933.46 967.42 1932.16 962.336 1932.37 958.27C1932.58 954.22 1934.31 951.075 1937.67 950.02C1941.03 948.965 1945.2 950.259 1949.16 953.003Z" fill="#3F3D56" stroke="black" stroke-width="3.69257" stroke-miterlimit="10"/>
<path d="M1889.01 1014.44C1886.32 1015.9 1882.3 1015.41 1877.93 1013.37C1873.58 1011.34 1868.92 1007.78 1865.01 1003.18C1861.1 998.574 1858.67 993.805 1857.91 989.82C1857.15 985.829 1858.06 982.661 1860.76 981.199C1863.45 979.736 1867.47 980.226 1871.83 982.262C1876.19 984.295 1880.85 987.852 1884.76 992.457C1888.67 997.061 1891.1 1001.83 1891.86 1005.81C1892.62 1009.81 1891.71 1012.97 1889.01 1014.44Z" fill="#8DD070" stroke="black"/>
<path fill-rule="evenodd" clip-rule="evenodd" d="M1851.98 937.831L1852.22 937.998C1896.21 968.104 1929.72 1007.52 1948.55 1051.31L1948.73 1051.72L1895.66 1080.52L1895.47 1079.98C1879.54 1033.68 1847.57 996.063 1799.52 967.136L1798.8 966.7L1851.98 937.831ZM1800.74 966.744C1848.37 995.599 1880.2 1033.06 1896.2 1079.13L1947.49 1051.29C1928.74 1007.92 1895.51 968.864 1851.92 938.963L1800.74 966.744Z" fill="#3F3D56" stroke="black" stroke-width="3.65578" stroke-miterlimit="10"/>
<path fill-rule="evenodd" clip-rule="evenodd" d="M1861.63 955.591L1861.87 955.758C1893.64 977.5 1917.84 1005.96 1931.45 1037.6L1931.62 1038L1893.07 1058.93L1892.89 1058.39C1881.39 1025 1858.34 997.878 1823.69 977.015L1822.97 976.579L1861.63 955.591ZM1824.91 976.623C1859.14 997.415 1882.06 1024.38 1893.61 1057.53L1930.38 1037.57C1916.86 1006.37 1892.94 978.259 1861.57 956.723L1824.91 976.623Z" fill="#3F3D56" stroke="black" stroke-width="3.65578" stroke-miterlimit="10"/>
<path fill-rule="evenodd" clip-rule="evenodd" d="M1881.12 986.029C1876.8 984.015 1872.96 983.595 1870.44 984.961C1867.93 986.327 1867 989.337 1867.75 993.285C1868.5 997.209 1870.9 1001.93 1874.78 1006.5C1878.67 1011.07 1883.28 1014.59 1887.57 1016.59C1891.88 1018.6 1895.72 1019.02 1898.24 1017.66C1900.76 1016.29 1901.69 1013.28 1900.93 1009.33C1900.18 1005.41 1897.79 1000.69 1893.9 996.118C1890.02 991.548 1885.41 988.031 1881.12 986.029ZM1881.59 985.272C1886.06 987.359 1890.8 990.987 1894.76 995.651C1898.73 1000.32 1901.21 1005.17 1901.99 1009.26C1902.76 1013.33 1901.88 1016.77 1898.87 1018.4C1895.87 1020.03 1891.54 1019.42 1887.09 1017.34C1882.62 1015.26 1877.89 1011.63 1873.92 1006.97C1869.96 1002.3 1867.48 997.447 1866.7 993.357C1865.92 989.291 1866.81 985.846 1869.81 984.216C1872.81 982.587 1877.15 983.198 1881.59 985.272Z" fill="#3F3D56" stroke="black" stroke-width="3.69554" stroke-miterlimit="10"/>
<path d="M1814.09 1013.2C1816.47 1018.39 1817.32 1023.4 1816.79 1027.3C1816.25 1031.21 1814.32 1033.98 1811.17 1034.76C1808.02 1035.53 1804.2 1034.17 1800.55 1031.29C1796.9 1028.41 1793.45 1024.04 1791.07 1018.85C1788.69 1013.66 1787.83 1008.65 1788.37 1004.75C1788.91 1000.84 1790.84 998.067 1793.99 997.294C1797.14 996.52 1800.96 997.882 1804.61 1000.76C1808.26 1003.64 1811.71 1008.01 1814.09 1013.2Z" fill="#8DD070" stroke="black"/>
<path fill-rule="evenodd" clip-rule="evenodd" d="M1796.61 955.559L1796.79 955.764C1828.53 991.522 1847.69 1033.29 1851.88 1075.85L1851.92 1076.24L1793.86 1090.49L1793.85 1089.92C1793.12 1045.8 1774.86 1005.96 1739.01 970.414L1738.44 969.844L1796.61 955.559ZM1740.23 970.34C1775.69 1005.73 1793.88 1045.4 1794.75 1089.34L1850.93 1075.54C1846.7 1033.42 1827.71 992.049 1796.3 956.573L1740.23 970.34Z" fill="#3F3D56" stroke="black" stroke-width="3.4351" stroke-miterlimit="10"/>
<path fill-rule="evenodd" clip-rule="evenodd" d="M1803.1 973.451L1803.29 973.669C1827.68 1001.15 1842.42 1033.26 1845.63 1065.98L1845.67 1066.4L1800.8 1077.42L1800.79 1076.81C1800.24 1042.96 1786.23 1012.39 1758.71 985.107L1758.1 984.5L1803.1 973.451ZM1760.01 985.028C1787.11 1012.15 1801.04 1042.54 1801.75 1076.19L1844.63 1065.66C1841.36 1033.4 1826.81 1001.71 1802.76 974.53L1760.01 985.028Z" fill="#3F3D56" stroke="black" stroke-width="3.65578" stroke-miterlimit="10"/>
<path fill-rule="evenodd" clip-rule="evenodd" d="M1796.97 1010.22C1796.44 1014.06 1797.28 1019.01 1799.64 1024.15C1802 1029.29 1805.41 1033.61 1809 1036.44C1812.6 1039.27 1816.27 1040.54 1819.25 1039.81C1822.22 1039.08 1824.11 1036.45 1824.64 1032.59C1825.17 1028.76 1824.33 1023.81 1821.97 1018.67C1819.61 1013.52 1816.2 1009.21 1812.61 1006.38C1809.01 1003.54 1805.33 1002.27 1802.36 1003C1799.39 1003.73 1797.5 1006.37 1796.97 1010.22ZM1795.95 1009.98C1796.5 1005.97 1798.5 1002.96 1801.95 1002.11C1805.41 1001.26 1809.48 1002.78 1813.23 1005.73C1816.98 1008.69 1820.5 1013.16 1822.92 1018.43C1825.34 1023.7 1826.22 1028.82 1825.66 1032.84C1825.11 1036.84 1823.11 1039.85 1819.66 1040.7C1816.2 1041.55 1812.12 1040.03 1808.38 1037.08C1804.62 1034.12 1801.11 1029.65 1798.69 1024.38C1796.27 1019.11 1795.39 1014 1795.95 1009.98Z" fill="#3F3D56" stroke="black" stroke-width="3.68889" stroke-miterlimit="10"/>
<path fill-rule="evenodd" clip-rule="evenodd" d="M1837.71 867.789C1837.71 867.79 1837.71 867.791 1837.02 868.048C1836.34 868.305 1836.34 868.305 1836.34 868.304L1836.33 868.3L1836.33 868.283C1836.32 868.268 1836.31 868.246 1836.3 868.216C1836.29 868.19 1836.28 868.159 1836.27 868.122C1836.25 868.073 1836.23 868.014 1836.2 867.945C1836.11 867.705 1835.97 867.347 1835.78 866.876C1835.41 865.934 1834.85 864.543 1834.1 862.747C1832.6 859.154 1830.34 853.943 1827.29 847.475C1821.19 834.54 1811.96 816.584 1799.41 796.508C1774.32 756.346 1736 707.741 1683.08 673.852L1683.87 672.616C1737.05 706.667 1775.5 755.469 1800.66 795.73C1813.24 815.864 1822.5 833.873 1828.62 846.85C1831.67 853.338 1833.95 858.57 1835.45 862.181C1836.21 863.987 1836.77 865.387 1837.15 866.337C1837.33 866.812 1837.47 867.175 1837.57 867.419C1837.62 867.541 1837.65 867.634 1837.67 867.696L1837.7 867.766L1837.71 867.785L1837.71 867.789Z" fill="#3F3D56" stroke="black" stroke-width="5.54535" stroke-miterlimit="10"/>
<path d="M1684.74 674.174L1689.07 691.319L1684.94 691.714L1679.67 670.834L1704.75 669.967L1705.33 673.467L1684.74 674.174Z" fill="#3F3D56"/>
<path d="M793.089 913.143V896.715H790.049V892.712H793.089V891.768C793.114 889.2 793.901 887.224 795.449 885.839C797.01 884.442 799.207 883.743 802.04 883.743C803.739 883.743 805.803 884.114 808.232 884.857L807.439 889.37C806.206 889.005 805.249 888.772 804.569 888.671C803.89 888.558 803.159 888.501 802.379 888.501C799.836 888.501 798.565 889.628 798.565 891.881V892.712H802.587V896.715H798.565V913.142L793.089 913.143ZM810.782 913.143H805.306V892.712H810.782V913.143Z" fill="white"/>
<path d="M820.354 892.712L820.525 895.073C821.985 893.248 823.942 892.335 826.397 892.335C828.562 892.335 830.174 892.971 831.231 894.242C832.288 895.513 832.83 897.414 832.855 899.944V913.143H827.398V900.077C827.398 898.918 827.146 898.081 826.642 897.565C826.139 897.037 825.302 896.772 824.131 896.772C822.596 896.772 821.444 897.427 820.676 898.736V913.143H815.219V892.712H820.354Z" fill="white"/>
<path d="M850.095 907.95C850.095 906.83 849.642 905.93 848.735 905.25C847.842 904.57 846.488 904.042 844.675 903.664C842.862 903.274 841.453 902.833 840.446 902.342C839.452 901.839 838.709 901.228 838.218 900.511C837.739 899.793 837.5 898.925 837.5 897.905C837.5 896.294 838.174 894.966 839.521 893.921C840.867 892.863 842.592 892.335 844.694 892.335C846.973 892.335 848.798 892.901 850.17 894.034C851.555 895.154 852.247 896.621 852.247 898.434H849.982C849.982 897.238 849.478 896.243 848.471 895.45C847.476 894.657 846.217 894.261 844.694 894.261C843.209 894.261 842.013 894.594 841.107 895.262C840.213 895.916 839.766 896.772 839.766 897.829C839.766 898.849 840.137 899.642 840.88 900.209C841.635 900.763 843.001 901.272 844.978 901.738C846.967 902.204 848.452 902.701 849.434 903.23C850.428 903.759 851.165 904.394 851.643 905.137C852.121 905.88 852.36 906.78 852.36 907.837C852.36 909.562 851.662 910.94 850.265 911.972C848.88 913.005 847.067 913.521 844.826 913.521C842.447 913.521 840.515 912.948 839.03 911.803C837.557 910.644 836.82 909.184 836.82 907.422H839.086C839.175 908.743 839.729 909.776 840.748 910.518C841.78 911.248 843.14 911.613 844.826 911.613C846.4 911.613 847.671 911.267 848.641 910.575C849.61 909.883 850.095 909.008 850.095 907.95V907.95Z" fill="white"/>
<path d="M860.934 887.482V892.712H865.163V894.563H860.934V908.177C860.934 909.31 861.135 910.153 861.538 910.707C861.953 911.261 862.639 911.538 863.596 911.538C863.974 911.538 864.584 911.475 865.428 911.349L865.522 913.199C864.93 913.413 864.125 913.521 863.105 913.521C861.557 913.521 860.43 913.073 859.725 912.18C859.02 911.273 858.668 909.945 858.668 908.196V894.563H854.91V892.712H858.668V887.482L860.934 887.482Z" fill="white"/>
<path d="M877.795 913.521C876.058 913.521 874.484 913.093 873.074 912.237C871.677 911.381 870.588 910.191 869.807 908.668C869.027 907.132 868.637 905.414 868.637 903.513V902.701C868.637 900.738 869.014 898.969 869.77 897.395C870.538 895.822 871.601 894.588 872.961 893.694C874.32 892.788 875.793 892.335 877.379 892.335C879.859 892.335 881.823 893.185 883.271 894.884C884.731 896.571 885.461 898.881 885.461 901.814V903.079H870.884V903.513C870.884 905.829 871.545 907.762 872.866 909.31C874.201 910.846 875.875 911.613 877.889 911.613C879.098 911.613 880.161 911.393 881.08 910.953C882.012 910.512 882.855 909.807 883.611 908.838L885.027 909.914C883.365 912.318 880.955 913.521 877.795 913.521V913.521ZM877.379 894.261C875.68 894.261 874.245 894.884 873.074 896.13C871.916 897.377 871.211 899.051 870.959 901.153H883.214V900.907C883.151 898.943 882.591 897.345 881.533 896.111C880.476 894.878 879.091 894.261 877.379 894.261V894.261Z" fill="white"/>
<path d="M899.338 894.639C898.859 894.55 898.35 894.506 897.808 894.506C896.398 894.506 895.202 894.903 894.221 895.695C893.251 896.476 892.559 897.615 892.143 899.113V913.143H889.896V892.712H892.106L892.144 895.96C893.34 893.543 895.26 892.334 897.903 892.334C898.532 892.334 899.029 892.416 899.394 892.58L899.338 894.639Z" fill="white"/>
<path d="M1481.56 986.113V975.616H1479.62V973.058H1481.56V972.454C1481.58 970.814 1482.09 969.551 1483.07 968.666C1484.07 967.773 1485.47 967.327 1487.28 967.327C1488.36 967.327 1489.68 967.564 1491.24 968.038L1490.73 970.922C1489.94 970.689 1489.33 970.54 1488.9 970.476C1488.46 970.403 1488 970.367 1487.5 970.367C1485.87 970.367 1485.06 971.087 1485.06 972.527V973.058H1487.63V975.616H1485.06V986.112L1481.56 986.113ZM1492.87 986.113H1489.37V973.058H1492.87V986.113Z" fill="white"/>
<path d="M1498.98 973.058L1499.09 974.566C1500.03 973.4 1501.28 972.817 1502.84 972.817C1504.23 972.817 1505.26 973.223 1505.93 974.035C1506.61 974.848 1506.95 976.063 1506.97 977.68V986.113H1503.48V977.764C1503.48 977.024 1503.32 976.489 1503 976.159C1502.68 975.821 1502.14 975.652 1501.4 975.652C1500.41 975.652 1499.68 976.071 1499.19 976.907V986.113H1495.7V973.058H1498.98Z" fill="white"/>
<path d="M1517.99 982.795C1517.99 982.079 1517.7 981.504 1517.12 981.07C1516.55 980.635 1515.68 980.297 1514.52 980.056C1513.36 979.807 1512.46 979.525 1511.82 979.211C1511.18 978.89 1510.71 978.499 1510.4 978.041C1510.09 977.583 1509.94 977.028 1509.94 976.376C1509.94 975.347 1510.37 974.498 1511.23 973.83C1512.09 973.154 1513.19 972.817 1514.53 972.817C1515.99 972.817 1517.16 973.179 1518.03 973.903C1518.92 974.619 1519.36 975.556 1519.36 976.714H1517.91C1517.91 975.95 1517.59 975.314 1516.95 974.808C1516.31 974.301 1515.51 974.047 1514.53 974.047C1513.59 974.047 1512.82 974.261 1512.24 974.687C1511.67 975.105 1511.39 975.652 1511.39 976.328C1511.39 976.979 1511.62 977.486 1512.1 977.848C1512.58 978.202 1513.45 978.528 1514.72 978.825C1515.99 979.123 1516.94 979.441 1517.56 979.779C1518.2 980.116 1518.67 980.522 1518.97 980.997C1519.28 981.472 1519.43 982.047 1519.43 982.722C1519.43 983.824 1518.99 984.705 1518.09 985.365C1517.21 986.025 1516.05 986.354 1514.62 986.354C1513.1 986.354 1511.86 985.988 1510.92 985.256C1509.97 984.516 1509.5 983.583 1509.5 982.457H1510.95C1511.01 983.302 1511.36 983.961 1512.01 984.436C1512.67 984.902 1513.54 985.135 1514.62 985.135C1515.62 985.135 1516.44 984.914 1517.06 984.472C1517.68 984.03 1517.99 983.47 1517.99 982.795V982.795Z" fill="white"/>
<path d="M1524.91 969.716V973.058H1527.61V974.24H1524.91V982.939C1524.91 983.663 1525.04 984.202 1525.3 984.556C1525.56 984.91 1526 985.087 1526.61 985.087C1526.85 985.087 1527.24 985.047 1527.78 984.967L1527.84 986.149C1527.46 986.285 1526.95 986.353 1526.3 986.353C1525.31 986.353 1524.59 986.067 1524.14 985.496C1523.69 984.916 1523.46 984.068 1523.46 982.95V974.239H1521.06V973.056H1523.46V969.714L1524.91 969.716Z" fill="white"/>
<path d="M1535.68 986.354C1534.57 986.354 1533.57 986.081 1532.67 985.534C1531.78 984.987 1531.08 984.226 1530.58 983.253C1530.08 982.272 1529.83 981.174 1529.83 979.96V979.441C1529.83 978.186 1530.07 977.056 1530.56 976.05C1531.05 975.045 1531.73 974.257 1532.6 973.686C1533.46 973.106 1534.4 972.817 1535.42 972.817C1537 972.817 1538.26 973.36 1539.18 974.446C1540.12 975.523 1540.58 977 1540.58 978.874V979.682H1531.27V979.96C1531.27 981.44 1531.69 982.675 1532.53 983.664C1533.39 984.645 1534.46 985.136 1535.74 985.136C1536.52 985.136 1537.2 984.995 1537.78 984.714C1538.38 984.432 1538.92 983.982 1539.4 983.362L1540.3 984.05C1539.24 985.587 1537.7 986.355 1535.68 986.355V986.354ZM1535.42 974.047C1534.33 974.047 1533.41 974.446 1532.67 975.242C1531.93 976.038 1531.48 977.108 1531.32 978.451H1539.15V978.293C1539.11 977.038 1538.75 976.017 1538.07 975.229C1537.4 974.441 1536.51 974.047 1535.42 974.047V974.047Z" fill="white"/>
<path d="M1549.45 974.289C1549.14 974.231 1548.82 974.202 1548.47 974.202C1547.57 974.202 1546.81 974.456 1546.18 974.962C1545.56 975.461 1545.12 976.19 1544.85 977.147V986.111H1543.42V973.056H1544.83L1544.86 975.132C1545.63 973.587 1546.85 972.815 1548.54 972.815C1548.95 972.815 1549.26 972.867 1549.5 972.972L1549.45 974.289Z" fill="white"/>
<defs>
<linearGradient id="paint0_linear" x1="173877" y1="61813.7" x2="173877" y2="17661.5" gradientUnits="userSpaceOnUse">
<stop stop-color="#808080" stop-opacity="0.25"/>
<stop offset="0.54" stop-color="#808080" stop-opacity="0.12"/>
<stop offset="1" stop-color="#808080" stop-opacity="0.1"/>
</linearGradient>
<linearGradient id="paint1_linear" x1="111730" y1="158660" x2="111730" y2="114412" gradientUnits="userSpaceOnUse">
<stop stop-color="#808080" stop-opacity="0.25"/>
<stop offset="0.54" stop-color="#808080" stop-opacity="0.12"/>
<stop offset="1" stop-color="#808080" stop-opacity="0.1"/>
</linearGradient>
<linearGradient id="paint2_linear" x1="10433.6" y1="30437.6" x2="10433.6" y2="25200.1" gradientUnits="userSpaceOnUse">
<stop stop-color="#808080" stop-opacity="0.25"/>
<stop offset="0.54" stop-color="#808080" stop-opacity="0.12"/>
<stop offset="1" stop-color="#808080" stop-opacity="0.1"/>
</linearGradient>
<linearGradient id="paint3_linear" x1="49457.2" y1="18965.2" x2="49457.2" y2="13786.7" gradientUnits="userSpaceOnUse">
<stop stop-color="#808080" stop-opacity="0.25"/>
<stop offset="0.54" stop-color="#808080" stop-opacity="0.12"/>
<stop offset="1" stop-color="#808080" stop-opacity="0.1"/>
</linearGradient>
<linearGradient id="paint4_linear" x1="31521.2" y1="53002.6" x2="31521.2" y2="47765" gradientUnits="userSpaceOnUse">
<stop stop-color="#808080" stop-opacity="0.25"/>
<stop offset="0.54" stop-color="#808080" stop-opacity="0.12"/>
<stop offset="1" stop-color="#808080" stop-opacity="0.1"/>
</linearGradient>
<linearGradient id="paint5_linear" x1="16827.9" y1="37443.9" x2="18528.3" y2="37443.9" gradientUnits="userSpaceOnUse">
<stop stop-color="#808080" stop-opacity="0.25"/>
<stop offset="0.54" stop-color="#808080" stop-opacity="0.12"/>
<stop offset="1" stop-color="#808080" stop-opacity="0.1"/>
</linearGradient>
<linearGradient id="paint6_linear" x1="6516.76" y1="13203.8" x2="7058.78" y2="13203.8" gradientUnits="userSpaceOnUse">
<stop stop-color="#808080" stop-opacity="0.25"/>
<stop offset="0.54" stop-color="#808080" stop-opacity="0.12"/>
<stop offset="1" stop-color="#808080" stop-opacity="0.1"/>
</linearGradient>
<linearGradient id="paint7_linear" x1="7575.68" y1="15875.3" x2="8248.21" y2="15875.3" gradientUnits="userSpaceOnUse">
<stop stop-color="#808080" stop-opacity="0.25"/>
<stop offset="0.54" stop-color="#808080" stop-opacity="0.12"/>
<stop offset="1" stop-color="#808080" stop-opacity="0.1"/>
</linearGradient>
</defs>
</svg>
